<?xml version="1.0" encoding="UTF-8"?>
<svg xmlns="http://www.w3.org/2000/svg" xmlns:xlink="http://www.w3.org/1999/xlink" width="927px" height="786px" viewBox="0 0 694 589" version="1.1">
<defs>
<filter id="alpha" filterUnits="objectBoundingBox" x="0%" y="0%" width="100%" height="100%">
  <feColorMatrix type="matrix" in="SourceGraphic" values="0 0 0 0 1 0 0 0 0 1 0 0 0 0 1 0 0 0 1 0"/>
</filter>
<mask id="mask0">
  <g filter="url(#alpha)">
<rect x="0" y="0" width="694" height="589" style="fill:rgb(0%,0%,0%);fill-opacity:0.301961;stroke:none;"/>
  </g>
</mask>
<clipPath id="clip1">
  <rect x="0" y="0" width="694" height="589"/>
</clipPath>
<g id="surface5" clip-path="url(#clip1)">
<path style=" stroke:none;fill-rule:nonzero;fill:rgb(94.117647%,94.117647%,94.117647%);fill-opacity:1;" d="M 638.234375 239.222656 C 631.289062 241.277344 615.96875 242.792969 599.125 243.71875 C 582.289062 244.640625 563.820312 245.046875 545.582031 245.4375 C 513.660156 246.125 481.738281 246.816406 449.820312 247.511719 C 445.433594 247.609375 441.03125 247.699219 436.617188 247.78125 C 434.40625 246.320312 432.199219 244.835938 430.011719 243.324219 C 433.929688 243.34375 437.84375 243.324219 441.730469 243.25 C 458.328125 242.917969 472.378906 241.621094 488.386719 241.007812 C 513.015625 240.054688 539.609375 240.804688 565.277344 241.1875 C 590.949219 241.578125 620.199219 241.433594 638.234375 239.222656 Z M 638.234375 239.222656 "/>
</g>
<mask id="mask1">
  <g filter="url(#alpha)">
<rect x="0" y="0" width="694" height="589" style="fill:rgb(0%,0%,0%);fill-opacity:0.301961;stroke:none;"/>
  </g>
</mask>
<clipPath id="clip2">
  <rect x="0" y="0" width="694" height="589"/>
</clipPath>
<g id="surface8" clip-path="url(#clip2)">
<path style=" stroke:none;fill-rule:nonzero;fill:rgb(94.117647%,94.117647%,94.117647%);fill-opacity:1;" d="M 148.296875 475.445312 L 46.539062 390.59375 L 145.394531 478.84375 C 145.917969 479.730469 146.960938 480.175781 147.960938 479.9375 C 148.964844 479.703125 149.699219 478.84375 149.773438 477.816406 C 149.851562 476.789062 149.253906 475.828125 148.296875 475.445312 Z M 148.296875 475.445312 "/>
</g>
<mask id="mask2">
  <g filter="url(#alpha)">
<rect x="0" y="0" width="694" height="589" style="fill:rgb(0%,0%,0%);fill-opacity:0.101961;stroke:none;"/>
  </g>
</mask>
<clipPath id="clip3">
  <rect x="0" y="0" width="694" height="589"/>
</clipPath>
<g id="surface11" clip-path="url(#clip3)">
<path style=" stroke:none;fill-rule:nonzero;fill:rgb(0%,0%,0%);fill-opacity:1;" d="M 339.027344 201.890625 L 343.386719 205.160156 L 345.566406 189.890625 Z M 339.027344 201.890625 "/>
</g>
<mask id="mask3">
  <g filter="url(#alpha)">
<rect x="0" y="0" width="694" height="589" style="fill:rgb(0%,0%,0%);fill-opacity:0.101961;stroke:none;"/>
  </g>
</mask>
<clipPath id="clip4">
  <rect x="0" y="0" width="694" height="589"/>
</clipPath>
<g id="surface14" clip-path="url(#clip4)">
<path style=" stroke:none;fill-rule:nonzero;fill:rgb(0%,0%,0%);fill-opacity:1;" d="M 248.039062 188.835938 L 249.035156 202.347656 L 280.652344 218.957031 L 252.53125 200.078125 Z M 248.039062 188.835938 "/>
</g>
<mask id="mask4">
  <g filter="url(#alpha)">
<rect x="0" y="0" width="694" height="589" style="fill:rgb(0%,0%,0%);fill-opacity:0.101961;stroke:none;"/>
  </g>
</mask>
<clipPath id="clip5">
  <rect x="0" y="0" width="694" height="589"/>
</clipPath>
<g id="surface17" clip-path="url(#clip5)">
<path style=" stroke:none;fill-rule:nonzero;fill:rgb(0%,0%,0%);fill-opacity:1;" d="M 247.441406 229.613281 L 283.976562 245.789062 L 246.425781 238.441406 Z M 247.441406 229.613281 "/>
</g>
</defs>
<g id="surface1">
<path style=" stroke:none;fill-rule:nonzero;fill:rgb(24.705882%,23.921569%,33.72549%);fill-opacity:1;" d="M 669.445312 246.582031 C 634.753906 290.988281 569.292969 301.160156 515.125 285.691406 C 497.402344 280.507812 480.304688 273.382812 464.144531 264.449219 C 454.753906 259.34375 445.59375 253.746094 436.617188 247.78125 C 434.40625 246.320312 432.199219 244.835938 430.011719 243.324219 C 428.523438 242.304688 427.039062 241.273438 425.558594 240.226562 C 407.019531 227.175781 389.210938 212.855469 371.699219 198.617188 C 327.984375 163.074219 283.074219 126.4375 229.367188 109.480469 C 218.300781 105.988281 203.988281 104.355469 197.144531 113.734375 C 191.207031 121.882812 194.832031 133.414062 199.855469 142.152344 C 218.488281 174.515625 252.3125 194.953125 286.167969 210.664062 C 320.019531 226.378906 355.882812 239.113281 385.308594 262.085938 C 414.738281 285.0625 437.207031 321.578125 431.1875 358.441406 C 426 390.207031 400.089844 416.015625 369.964844 427.261719 C 339.835938 438.503906 306.238281 436.9375 274.921875 429.636719 C 243.605469 422.332031 213.875 409.585938 183.652344 398.597656 C 165.429688 391.96875 141.609375 387.382812 129.519531 402.554688 C 119.308594 415.378906 125.175781 435.601562 137.613281 446.273438 C 150.046875 456.945312 166.875 460.519531 182.933594 463.726562 C 232.796875 473.691406 282.65625 483.65625 332.515625 493.617188 C 347.808594 496.667969 363.464844 499.859375 376.789062 507.984375 C 390.117188 516.097656 400.867188 530.277344 400.484375 545.886719 C 400.105469 561.269531 388.851562 574.863281 375.0625 581.675781 C 361.277344 588.480469 345.363281 589.53125 330.007812 588.796875 C 272.464844 586.039062 107.5 494.53125 67.933594 482.835938 C 42.511719 475.328125 14.714844 464.296875 3.992188 440.03125 C -9.355469 409.824219 12.609375 373.277344 42.59375 359.480469 C 72.570312 345.679688 107.320312 348.734375 139.992188 353.382812 C 172.664062 358.027344 206.414062 363.941406 238.214844 355.113281 C 270.019531 346.285156 299.15625 317.511719 296.019531 284.628906 C 293.285156 256.015625 267.539062 234.457031 240.445312 224.957031 C 219.238281 217.515625 196.671875 215.492188 174.394531 212.140625 C 168.210938 211.21875 162.046875 210.1875 155.945312 208.914062 C 140.320312 205.636719 125.078125 200.738281 110.464844 194.300781 C 95.132812 187.558594 80.566406 179.191406 67.015625 169.339844 C 56.207031 161.492188 46.105469 152.714844 36.828125 143.101562 C 35.414062 141.632812 34.011719 140.132812 32.628906 138.601562 C 31.3125 137.132812 30.007812 135.632812 28.734375 134.101562 C 12.175781 114.296875 -0.0585938 89.90625 3.609375 64.773438 C 7.269531 39.707031 26.789062 18.835938 50.027344 8.808594 C 63.457031 3.015625 77.945312 0.425781 92.609375 0.0507812 C 103.335938 -0.164062 114.054688 0.609375 124.636719 2.359375 C 173.605469 10.195312 218.480469 34.011719 260.863281 59.796875 C 303.234375 85.582031 344.53125 113.886719 390.597656 132.265625 C 436.660156 150.65625 489.097656 158.441406 535.828125 141.8125 C 582.558594 125.195312 620.949219 79.84375 618.664062 30.257812 C 649.660156 56.972656 675.996094 90.550781 687.660156 129.789062 C 699.324219 169.023438 694.636719 214.332031 669.445312 246.582031 Z M 669.445312 246.582031 "/>
<path style=" stroke:none;fill-rule:nonzero;fill:rgb(97.647059%,65.882353%,14.901961%);fill-opacity:1;" d="M 451.578125 189.882812 C 451.578125 192.894531 449.136719 195.335938 446.128906 195.335938 C 443.121094 195.335938 440.679688 192.894531 440.679688 189.882812 C 440.679688 186.871094 443.121094 184.429688 446.128906 184.429688 C 449.136719 184.429688 451.578125 186.871094 451.578125 189.882812 Z M 451.578125 189.882812 "/>
<path style=" stroke:none;fill-rule:nonzero;fill:rgb(100%,39.607843%,51.764706%);fill-opacity:1;" d="M 646.957031 117.945312 C 646.957031 122.601562 643.183594 126.378906 638.53125 126.378906 C 633.878906 126.378906 630.109375 122.601562 630.109375 117.945312 C 630.109375 113.289062 633.878906 109.511719 638.53125 109.511719 C 643.183594 109.511719 646.957031 113.289062 646.957031 117.945312 Z M 646.957031 117.945312 "/>
<path style=" stroke:none;fill-rule:nonzero;fill:rgb(100%,39.607843%,51.764706%);fill-opacity:1;" d="M 89.140625 383.21875 C 89.140625 384.941406 87.746094 386.335938 86.027344 386.335938 C 84.308594 386.335938 82.914062 384.941406 82.914062 383.21875 C 82.914062 381.5 84.308594 380.105469 86.027344 380.105469 C 87.746094 380.105469 89.140625 381.5 89.140625 383.21875 Z M 89.140625 383.21875 "/>
<path style=" stroke:none;fill-rule:nonzero;fill:rgb(100%,39.607843%,51.764706%);fill-opacity:1;" d="M 175.367188 204.125 C 175.367188 206.828125 175.042969 209.519531 174.394531 212.140625 C 168.210938 211.21875 162.046875 210.1875 155.945312 208.914062 C 140.320312 205.636719 125.078125 200.738281 110.464844 194.300781 C 115.320312 178.605469 130.90625 168.820312 147.136719 171.277344 C 163.363281 173.734375 175.363281 187.695312 175.367188 204.125 Z M 175.367188 204.125 "/>
<path style=" stroke:none;fill-rule:nonzero;fill:rgb(94.117647%,94.117647%,94.117647%);fill-opacity:1;" d="M 587.8125 172.648438 C 587.8125 174.410156 586.386719 175.835938 584.628906 175.835938 C 582.871094 175.835938 581.445312 174.410156 581.445312 172.648438 C 581.445312 170.890625 582.871094 169.460938 584.628906 169.460938 C 586.386719 169.460938 587.8125 170.890625 587.8125 172.648438 Z M 587.8125 172.648438 "/>
<path style=" stroke:none;fill-rule:nonzero;fill:rgb(94.117647%,94.117647%,94.117647%);fill-opacity:1;" d="M 296.585938 523.351562 C 296.585938 525.109375 295.164062 526.539062 293.40625 526.539062 C 291.648438 526.539062 290.222656 525.109375 290.222656 523.351562 C 290.222656 521.589844 291.648438 520.164062 293.40625 520.164062 C 295.164062 520.164062 296.585938 521.589844 296.585938 523.351562 Z M 296.585938 523.351562 "/>
<path style=" stroke:none;fill-rule:nonzero;fill:rgb(94.117647%,94.117647%,94.117647%);fill-opacity:1;" d="M 342.253906 567.5625 C 342.253906 569.324219 340.832031 570.75 339.074219 570.75 C 337.3125 570.75 335.890625 569.324219 335.890625 567.5625 C 335.890625 565.804688 337.3125 564.378906 339.074219 564.378906 C 340.832031 564.378906 342.253906 565.804688 342.253906 567.5625 Z M 342.253906 567.5625 "/>
<path style=" stroke:none;fill-rule:nonzero;fill:rgb(94.117647%,94.117647%,94.117647%);fill-opacity:1;" d="M 60.015625 441.671875 C 60.015625 443.429688 58.589844 444.855469 56.832031 444.855469 C 55.074219 444.855469 53.648438 443.429688 53.648438 441.671875 C 53.648438 439.910156 55.074219 438.484375 56.832031 438.484375 C 58.589844 438.484375 60.015625 439.910156 60.015625 441.671875 Z M 60.015625 441.671875 "/>
<path style=" stroke:none;fill-rule:nonzero;fill:rgb(94.117647%,94.117647%,94.117647%);fill-opacity:1;" d="M 216.480469 382.46875 C 216.480469 384.230469 215.058594 385.65625 213.300781 385.65625 C 211.539062 385.65625 210.117188 384.230469 210.117188 382.46875 C 210.117188 380.710938 211.539062 379.285156 213.300781 379.285156 C 215.058594 379.285156 216.480469 380.710938 216.480469 382.46875 Z M 216.480469 382.46875 "/>
<path style=" stroke:none;fill-rule:nonzero;fill:rgb(94.117647%,94.117647%,94.117647%);fill-opacity:1;" d="M 200.761719 66.238281 C 200.761719 68 199.335938 69.425781 197.578125 69.425781 C 195.820312 69.425781 194.394531 68 194.394531 66.238281 C 194.394531 64.480469 195.820312 63.054688 197.578125 63.054688 C 199.335938 63.054688 200.761719 64.480469 200.761719 66.238281 Z M 200.761719 66.238281 "/>
<path style=" stroke:none;fill-rule:nonzero;fill:rgb(94.117647%,94.117647%,94.117647%);fill-opacity:1;" d="M 393.164062 315.777344 C 393.164062 317.535156 391.738281 318.964844 389.980469 318.964844 C 388.222656 318.964844 386.796875 317.535156 386.796875 315.777344 C 386.796875 314.015625 388.222656 312.589844 389.980469 312.589844 C 391.738281 312.589844 393.164062 314.015625 393.164062 315.777344 Z M 393.164062 315.777344 "/>
<path style=" stroke:none;fill-rule:nonzero;fill:rgb(94.117647%,94.117647%,94.117647%);fill-opacity:1;" d="M 417.121094 371.230469 C 417.121094 372.988281 415.695312 374.417969 413.9375 374.417969 C 412.179688 374.417969 410.753906 372.988281 410.753906 371.230469 C 410.753906 369.46875 412.179688 368.042969 413.9375 368.042969 C 415.695312 368.042969 417.121094 369.46875 417.121094 371.230469 Z M 417.121094 371.230469 "/>
<path style=" stroke:none;fill-rule:nonzero;fill:rgb(97.647059%,65.882353%,14.901961%);fill-opacity:1;" d="M 127.003906 76.410156 C 127.027344 92.496094 123.230469 108.359375 115.921875 122.691406 C 114.957031 124.578125 113.933594 126.433594 112.855469 128.257812 C 102.15625 146.34375 86.148438 160.6875 67.015625 169.339844 C 56.207031 161.492188 46.105469 152.714844 36.828125 143.101562 C 35.414062 141.632812 34.011719 140.132812 32.628906 138.597656 C 31.3125 137.128906 30.007812 135.632812 28.734375 134.101562 C 12.175781 114.296875 -0.0585938 89.90625 3.609375 64.773438 C 7.269531 39.707031 26.789062 18.835938 50.027344 8.808594 C 63.457031 3.015625 77.945312 0.425781 92.609375 0.0507812 C 104.078125 10.1875 113.117188 22.777344 119.058594 36.886719 C 119.808594 38.664062 120.496094 40.460938 121.148438 42.285156 C 125.035156 53.242188 127.015625 64.78125 127.003906 76.410156 Z M 127.003906 76.410156 "/>
<path style=" stroke:none;fill-rule:nonzero;fill:rgb(89.411765%,89.411765%,89.411765%);fill-opacity:1;" d="M 173.417969 81.65625 C 173.417969 97.265625 158.191406 111.742188 130.535156 122.4375 C 125.003906 124.578125 119.082031 126.519531 112.855469 128.257812 C 89.539062 134.761719 61.796875 138.367188 32.628906 138.597656 C 31.3125 137.128906 30.007812 135.632812 28.734375 134.101562 C 29.050781 134.109375 29.363281 134.109375 29.679688 134.109375 C 61.355469 134.109375 91.40625 130.09375 115.921875 122.691406 C 120.453125 121.320312 124.796875 119.835938 128.917969 118.238281 C 154.34375 108.414062 168.929688 95.078125 168.929688 81.65625 C 168.929688 68.234375 154.34375 54.902344 128.917969 45.070312 C 126.40625 44.097656 123.8125 43.167969 121.148438 42.285156 C 120.496094 40.460938 119.808594 38.664062 119.058594 36.886719 C 123.042969 38.132812 126.867188 39.460938 130.535156 40.875 C 158.191406 51.570312 173.417969 66.054688 173.417969 81.65625 Z M 173.417969 81.65625 "/>
<path style=" stroke:none;fill-rule:nonzero;fill:rgb(94.117647%,94.117647%,94.117647%);fill-opacity:1;" d="M 37.554688 22.777344 C 37.554688 24.535156 36.128906 25.960938 34.371094 25.960938 C 32.613281 25.960938 31.1875 24.535156 31.1875 22.777344 C 31.1875 21.015625 32.613281 19.589844 34.371094 19.589844 C 36.128906 19.589844 37.554688 21.015625 37.554688 22.777344 Z M 37.554688 22.777344 "/>
<path style=" stroke:none;fill-rule:nonzero;fill:rgb(94.117647%,94.117647%,94.117647%);fill-opacity:1;" d="M 104.183594 43.007812 C 104.183594 44.769531 102.757812 46.195312 101 46.195312 C 99.242188 46.195312 97.816406 44.769531 97.816406 43.007812 C 97.816406 41.25 99.242188 39.824219 101 39.824219 C 102.757812 39.824219 104.183594 41.25 104.183594 43.007812 Z M 104.183594 43.007812 "/>
<path style=" stroke:none;fill-rule:nonzero;fill:rgb(94.117647%,94.117647%,94.117647%);fill-opacity:1;" d="M 97.519531 75.230469 C 97.519531 92.34375 83.660156 106.214844 66.5625 106.214844 C 49.46875 106.214844 35.609375 92.34375 35.609375 75.230469 C 35.609375 58.117188 49.46875 44.246094 66.5625 44.246094 C 83.660156 44.246094 97.519531 58.117188 97.519531 75.230469 Z M 97.519531 75.230469 "/>
<use xlink:href="#surface5" mask="url(#mask0)"/>
<use xlink:href="#surface8" mask="url(#mask1)"/>
<path style=" stroke:none;fill-rule:nonzero;fill:rgb(94.117647%,94.117647%,94.117647%);fill-opacity:1;" d="M 74.238281 150.917969 C 74.238281 152.675781 72.8125 154.101562 71.054688 154.101562 C 69.296875 154.101562 67.871094 152.675781 67.871094 150.917969 C 67.871094 149.15625 69.296875 147.730469 71.054688 147.730469 C 72.8125 147.730469 74.238281 149.15625 74.238281 150.917969 Z M 74.238281 150.917969 "/>
<path style=" stroke:none;fill-rule:nonzero;fill:rgb(100%,71.372549%,71.372549%);fill-opacity:1;" d="M 338.402344 520.113281 L 351.570312 520.113281 L 357.832031 469.277344 L 338.402344 469.28125 Z M 338.402344 520.113281 "/>
<path style=" stroke:none;fill-rule:nonzero;fill:rgb(18.431373%,18.039216%,25.490196%);fill-opacity:1;" d="M 335.042969 515.8125 L 338.75 515.8125 L 353.21875 509.921875 L 360.976562 515.808594 C 370.101562 515.808594 377.5 523.214844 377.5 532.351562 L 377.5 532.886719 L 335.046875 532.890625 Z M 335.042969 515.8125 "/>
<path style=" stroke:none;fill-rule:nonzero;fill:rgb(100%,71.372549%,71.372549%);fill-opacity:1;" d="M 239.800781 520.113281 L 226.632812 520.113281 L 220.367188 469.277344 L 239.800781 469.28125 Z M 239.800781 520.113281 "/>
<path style=" stroke:none;fill-rule:nonzero;fill:rgb(18.431373%,18.039216%,25.490196%);fill-opacity:1;" d="M 243.15625 532.890625 L 200.703125 532.886719 L 200.703125 532.351562 C 200.703125 523.214844 208.101562 515.808594 217.226562 515.808594 L 224.984375 509.921875 L 239.453125 515.8125 L 243.15625 515.8125 Z M 243.15625 532.890625 "/>
<path style=" stroke:none;fill-rule:nonzero;fill:rgb(97.647059%,65.882353%,14.901961%);fill-opacity:1;" d="M 286.976562 130.53125 L 273.644531 140.691406 L 238.230469 150.078125 C 238.230469 150.078125 250.921875 239.222656 244.929688 245.21875 C 238.941406 251.214844 244.34375 251.375 243.140625 259.164062 C 241.9375 266.949219 237.140625 287.511719 237.140625 287.511719 L 342.839844 287.511719 C 342.839844 287.511719 343.691406 274.734375 338.480469 271.964844 C 333.273438 269.199219 343.285156 256.28125 339.027344 254.121094 C 334.769531 251.964844 340.757812 233.230469 340.757812 233.230469 L 353.738281 171.894531 L 319.214844 144.855469 L 313.964844 132.195312 Z M 286.976562 130.53125 "/>
<path style=" stroke:none;fill-rule:nonzero;fill:rgb(94.901961%,94.901961%,94.901961%);fill-opacity:1;" d="M 308.226562 205.570312 C 308.226562 208.121094 306.160156 210.1875 303.613281 210.1875 C 301.066406 210.1875 299 208.121094 299 205.570312 C 299 203.023438 301.066406 200.953125 303.613281 200.953125 C 306.160156 200.953125 308.226562 203.023438 308.226562 205.570312 Z M 308.226562 205.570312 "/>
<path style=" stroke:none;fill-rule:nonzero;fill:rgb(18.431373%,18.039216%,25.490196%);fill-opacity:1;" d="M 237.140625 287.511719 L 232.78125 399.855469 C 232.78125 399.855469 213.960938 482.832031 217.230469 485.015625 C 220.5 487.195312 221.882812 500.203125 221.882812 500.203125 L 240.410156 502.386719 C 240.410156 502.386719 240.410156 493.660156 244.769531 490.386719 C 249.128906 487.117188 289.445312 333.324219 289.445312 333.324219 L 328.78125 482.019531 C 328.78125 482.019531 329.765625 490.386719 333.035156 490.386719 C 336.304688 490.386719 337.390625 502.386719 337.390625 502.386719 L 355.917969 502.386719 L 355.917969 490.386719 C 355.917969 490.386719 364.242188 487.746094 360.972656 479.019531 C 357.703125 470.292969 342.839844 287.511719 342.839844 287.511719 Z M 237.140625 287.511719 "/>
<path style=" stroke:none;fill-rule:nonzero;fill:rgb(100%,71.372549%,71.372549%);fill-opacity:1;" d="M 323.160156 101.476562 C 323.160156 113.824219 313.160156 123.835938 300.820312 123.835938 C 288.484375 123.835938 278.480469 113.824219 278.480469 101.476562 C 278.480469 89.125 288.484375 79.117188 300.820312 79.117188 C 313.160156 79.117188 323.160156 89.125 323.160156 101.476562 Z M 323.160156 101.476562 "/>
<use xlink:href="#surface11" mask="url(#mask2)"/>
<path style=" stroke:none;fill-rule:nonzero;fill:rgb(97.647059%,65.882353%,14.901961%);fill-opacity:1;" d="M 240.320312 149.992188 C 240.320312 149.992188 234.871094 148.902344 231.601562 158.71875 C 228.332031 168.535156 216.347656 205.621094 216.347656 212.164062 C 216.347656 218.707031 290.992188 247.585938 290.992188 247.585938 L 283.226562 220.3125 L 249.035156 202.347656 Z M 240.320312 149.992188 "/>
<path style=" stroke:none;fill-rule:nonzero;fill:rgb(100%,71.372549%,71.372549%);fill-opacity:1;" d="M 307.183594 230.800781 C 307.183594 237.835938 301.484375 243.539062 294.457031 243.539062 C 287.429688 243.539062 281.730469 237.835938 281.730469 230.800781 C 281.730469 223.765625 287.429688 218.0625 294.457031 218.0625 C 301.484375 218.0625 307.183594 223.765625 307.183594 230.800781 Z M 307.183594 230.800781 "/>
<use xlink:href="#surface14" mask="url(#mask3)"/>
<path style=" stroke:none;fill-rule:nonzero;fill:rgb(94.117647%,94.117647%,94.117647%);fill-opacity:1;" d="M 324.046875 190.761719 L 323.636719 190.761719 L 323.636719 179.515625 C 323.636719 175.921875 320.722656 173.007812 317.132812 173.007812 L 293.328125 173.007812 C 289.734375 173.007812 286.824219 175.921875 286.824219 179.515625 L 286.824219 241.21875 C 286.824219 244.8125 289.734375 247.726562 293.328125 247.726562 L 317.132812 247.726562 C 320.722656 247.726562 323.636719 244.8125 323.636719 241.21875 L 323.636719 198.769531 L 324.046875 198.769531 Z M 324.046875 190.761719 "/>
<path style=" stroke:none;fill-rule:nonzero;fill:rgb(97.647059%,65.882353%,14.901961%);fill-opacity:1;" d="M 353.738281 171.894531 C 353.738281 171.894531 357.007812 174.074219 359.1875 183.890625 C 361.367188 193.707031 375.53125 230.792969 370.082031 239.519531 C 364.636719 248.246094 363.027344 257.558594 344.5 244.46875 L 318.867188 220.976562 L 337.390625 203.523438 L 345.019531 208.980469 Z M 353.738281 171.894531 "/>
<path style=" stroke:none;fill-rule:nonzero;fill:rgb(97.647059%,65.882353%,14.901961%);fill-opacity:1;" d="M 310.96875 195.054688 C 310.96875 198.066406 308.53125 200.507812 305.519531 200.507812 C 302.511719 200.507812 300.074219 198.066406 300.074219 195.054688 C 300.074219 192.042969 302.511719 189.601562 305.519531 189.601562 C 308.53125 189.601562 310.96875 192.042969 310.96875 195.054688 Z M 310.96875 195.054688 "/>
<path style=" stroke:none;fill-rule:nonzero;fill:rgb(100%,71.372549%,71.372549%);fill-opacity:1;" d="M 334.019531 207 C 334.019531 214.039062 328.324219 219.742188 321.292969 219.742188 C 314.265625 219.742188 308.566406 214.039062 308.566406 207 C 308.566406 199.964844 314.265625 194.261719 321.292969 194.261719 C 328.324219 194.261719 334.019531 199.964844 334.019531 207 Z M 334.019531 207 "/>
<use xlink:href="#surface17" mask="url(#mask4)"/>
<path style=" stroke:none;fill-rule:nonzero;fill:rgb(18.431373%,18.039216%,25.490196%);fill-opacity:1;" d="M 278.285156 105.929688 L 275.214844 94.246094 C 274.417969 91.199219 273.609375 88.089844 273.789062 84.941406 C 273.96875 81.792969 275.300781 78.546875 277.953125 76.84375 C 280.601562 75.136719 284.644531 75.539062 286.347656 78.191406 C 286.671875 73.957031 290.519531 70.703125 294.597656 69.550781 C 298.679688 68.398438 303.011719 68.851562 307.25 69.046875 C 311.484375 69.242188 315.957031 69.105469 319.613281 66.957031 C 320.1875 68.679688 319.472656 70.570312 317.898438 71.484375 C 319.785156 71.996094 321.746094 70.960938 322.386719 69.113281 C 322.414062 71.5625 321.511719 73.933594 319.855469 75.742188 C 323.125 74.117188 327.089844 75.242188 329.023438 78.339844 C 330.890625 81.578125 329.84375 85.644531 328.753906 89.21875 L 323.148438 107.566406 C 322.300781 104.777344 322.140625 101.832031 321.6875 98.953125 C 321.230469 96.070312 320.421875 93.128906 318.523438 90.917969 C 316.625 88.710938 313.398438 87.429688 310.699219 88.527344 C 309.183594 89.140625 308.03125 90.390625 306.664062 91.289062 C 303.859375 93.128906 300.289062 93.390625 296.957031 93.019531 C 293.625 92.644531 290.378906 91.695312 287.046875 91.3125 C 284.960938 91.078125 282.632812 91.140625 281.058594 92.53125 C 279.976562 93.65625 279.261719 95.085938 279.007812 96.628906 C 278.265625 99.699219 277.972656 102.867188 278.140625 106.023438 "/>
</g>
</svg>
